<?xml version="1.0" encoding="UTF-8"?>
<svg width="48px" height="48px" viewBox="0 0 48 48" version="1.1" xmlns="http://www.w3.org/2000/svg" xmlns:xlink="http://www.w3.org/1999/xlink">
    <title>Instagram</title>
    <g id="ðŸ–¥ï¸---Website" stroke="none" stroke-width="1" fill="none" fill-rule="evenodd">
        <g id="Instagram">
            <circle id="Oval" fill="#FFFFFF" cx="24" cy="24" r="24"></circle>
            <g id="icons8-instagram" transform="translate(12.000000, 12.000000)" fill="#222222" fill-rule="nonzero">
                <path d="M6.99843744,0 C3.13971744,0 0,3.14157024 0,7.00125024 L0,17.0006251 C0,20.8598251 3.14157024,24 7.00125024,24 L17.0006251,24 C20.8598251,24 24,20.8584298 24,16.9987498 L24,6.99843744 C24,3.13971744 20.8584298,0 16.9987498,0 L6.99843744,0 Z M19.2,3.84 C19.72992,3.84 20.16,4.27008 20.16,4.8 C20.16,5.32992 19.72992,5.76 19.2,5.76 C18.67008,5.76 18.24,5.32992 18.24,4.8 C18.24,4.27008 18.67008,3.84 19.2,3.84 Z M12,5.76 C15.4416,5.76 18.24,8.5584 18.24,12 C18.24,15.4416 15.44112,18.24 12,18.24 C8.5584,18.24 5.76,15.44112 5.76,12 C5.76,8.55888 8.5584,5.76 12,5.76 Z M12,7.68 C9.61392,7.68 7.68,9.61392 7.68,12 C7.68,14.38608 9.61392,16.32 12,16.32 C14.38608,16.32 16.32,14.38608 16.32,12 C16.32,9.61392 14.38608,7.68 12,7.68 Z" id="Shape"></path>
            </g>
        </g>
    </g>
</svg>