<?xml version="1.0" encoding="UTF-8"?>
<svg width="48px" height="48px" viewBox="0 0 48 48" version="1.1" xmlns="http://www.w3.org/2000/svg" xmlns:xlink="http://www.w3.org/1999/xlink">
    <title>Telegram</title>
    <g id="ðŸ–¥ï¸---Website" stroke="none" stroke-width="1" fill="none" fill-rule="evenodd">
        <g id="Telegram" fill-rule="nonzero">
            <path d="M48,24 C48,37.254 37.254,48 24,48 C10.746,48 0,37.254 0,24 C0,10.746 10.746,0 24,0 C37.254,0 48,10.746 48,24 Z" id="Path" fill="#FFFFFF"></path>
            <path d="M9.31925534,23.1721432 C17.6277746,19.5132494 28.3789273,15.0523737 29.8635254,14.4348238 C33.7562865,12.8189611 34.9508591,13.128331 34.3553557,16.7075025 C33.9274492,19.2800321 32.6936519,27.7960331 31.7094668,33.096967 C31.1258497,36.240641 29.8159802,36.6130747 27.7572741,35.2530371 C26.7671458,34.5986008 21.7689594,31.289533 20.6837407,30.5125386 C19.6936125,29.8045575 18.3278773,28.9526005 20.0406922,27.2748638 C20.6504591,26.6775419 24.6454424,22.8580138 27.7584627,19.8856831 C28.1661626,19.4954011 27.6538634,18.8540536 27.1831661,19.1669931 C22.9873045,21.9525119 17.1701523,25.8184456 16.4296362,26.3217666 C15.311136,27.0821026 14.236615,27.4307386 12.3086582,26.8762526 C10.8513986,26.4574134 9.42860924,25.957662 8.87470796,25.7672806 C6.74111824,25.0343119 7.24747435,24.0847844 9.31925534,23.1721432 Z" id="Path" fill="#222222"></path>
        </g>
    </g>
</svg>