<?xml version="1.0" encoding="UTF-8"?>
<svg width="50px" height="50px" viewBox="0 0 50 50" version="1.1" xmlns="http://www.w3.org/2000/svg" xmlns:xlink="http://www.w3.org/1999/xlink">
    <title>TikTok</title>
    <g id="ðŸ–¥ï¸---Website" stroke="none" stroke-width="1" fill="none" fill-rule="evenodd">
        <g id="TikTok" transform="translate(1.000000, 1.000000)">
            <path d="M0,24 C0,10.7451654 10.7451654,0 24,0 C37.2548346,0 48,10.7451654 48,24 C48,37.2548346 37.2548346,48 24,48 C10.7451654,48 0,37.2548346 0,24 Z" id="Combined-Shape-path" fill="#FFFFFF"></path>
            <path d="M35.1554796,21.3588786 C32.534397,21.3588786 30.2306495,20.012396 28.8894266,17.9733866 C28.8894266,23.3189925 28.8894266,29.4027094 28.8894266,29.5043969 C28.8894266,34.2118262 25.0726394,38.0268602 20.3669633,38.0268602 C15.6612872,38.0251069 11.8445,34.2083197 11.8445,29.5026437 C11.8445,24.7952143 15.6612872,20.9801804 20.3669633,20.9801804 C20.545793,20.9801804 20.719363,20.9959595 20.892933,21.0064789 L20.892933,25.207224 C20.7176098,25.1861852 20.5475462,25.154627 20.3669633,25.154627 C17.9650347,25.154627 16.0171934,27.1024683 16.0171934,29.5043969 C16.0171934,31.9063254 17.9632815,33.8541668 20.3669633,33.8541668 C22.7706451,33.8541668 24.8920564,31.9606757 24.8920564,29.5587471 C24.8920564,29.4623193 24.934134,9.97513982 24.934134,9.97513982 L28.9472833,9.97513982 C29.3242282,13.5640068 32.2223216,16.3972306 35.8445,16.656709 L35.8445,21.3238139 C35.6165798,21.3448527 35.3869063,21.3588786 35.1554796,21.3588786 Z" id="Path" stroke="#222222" fill="#222222"></path>
        </g>
    </g>
</svg>