<?xml version="1.0" encoding="UTF-8"?>
<svg width="50px" height="50px" viewBox="0 0 50 50" version="1.1" xmlns="http://www.w3.org/2000/svg" xmlns:xlink="http://www.w3.org/1999/xlink">
    <title>Twitch</title>
    <g id="ðŸ–¥ï¸---Website" stroke="none" stroke-width="1" fill="none" fill-rule="evenodd">
        <g id="Twitch" transform="translate(1.000000, 1.000000)">
            <path d="M0,24 C0,10.7451654 10.7451654,0 24,0 C37.2548346,0 48,10.7451654 48,24 C48,37.2548346 37.2548346,48 24,48 C10.7451654,48 0,37.2548346 0,24 Z" id="Combined-Shape-path" fill="#FFFFFF"></path>
            <polygon id="Path" fill="#222222" points="15.5404296 11 11 17.1822917 11 35 17.75 35 17.75 39 21.8 39 25.85 35 31.25 35 38 28.3333333 38 11"></polygon>
            <polygon id="Path" fill="#FFFFFF" points="16.4 13.6666667 35.3 13.6666667 35.3 25.6666667 31.25 29.6666667 24.5 29.6666667 20.45 33.6666667 20.45 29.6666667 16.4 29.6666667"></polygon>
            <polygon id="Path" fill="#222222" points="22.15 17.6666667 22.15 24.3333333 24.85 24.3333333 24.85 17.6666667"></polygon>
            <polygon id="Path" fill="#222222" points="28.9 17.6666667 28.9 24.3333333 31.6 24.3333333 31.6 17.6666667"></polygon>
        </g>
    </g>
</svg>