<?xml version="1.0" encoding="UTF-8"?>
<svg width="587px" height="156px" viewBox="0 0 587 156" version="1.1" xmlns="http://www.w3.org/2000/svg" xmlns:xlink="http://www.w3.org/1999/xlink">
    <title>Group</title>
    <defs>
        <linearGradient x1="27.2786998%" y1="84.8301305%" x2="94.0689421%" y2="14.0837575%" id="linearGradient-1">
            <stop stop-color="#FF5A5A" offset="0%"></stop>
            <stop stop-color="#FFAE6F" offset="100%"></stop>
        </linearGradient>
    </defs>
    <g id="🎨---Mooney-Brand" stroke="none" stroke-width="1" fill="none" fill-rule="evenodd">
        <g id="Group" fill-rule="nonzero">
            <path d="M56.4,156 C85,156 109,133.457801 109,101.340153 C109,68.8235294 85,46.4808184 56.4,46.4808184 C43.8,46.4808184 31.8,50.8695652 24.2,58.8491049 C24.6,50.8695652 24.8,42.0920716 24.8,33.9130435 L24.8,0 L0,0 L0,154.005115 L22,154.005115 L22.2,141.237852 C29.6,150.613811 42.6,156 56.4,156 Z M23,101.340153 C23,80.9923274 36.2,69.2225064 53.2,69.2225064 C71,69.2225064 84,82.1892583 84,101.340153 C84,120.29156 71,133.258312 53.2,133.258312 C36.2,133.258312 23,121.488491 23,101.340153 Z" id="Shape" fill="#FFFFFF"></path>
            <path d="M233.455923,46 C251.209217,46 264.091922,54.3456432 270.140585,69.2145834 C266.183777,78.6907292 264,89.0903404 264,100 C264,114.062004 267.628108,127.276617 273.999308,138.758825 L274,154 L249.23416,154 L249.23416,90.5175601 C249.23416,77.142329 242.842975,69.1571165 231.858127,69.1571165 C220.473829,69.1571165 213.88292,77.142329 213.88292,91.3160813 L213.88292,91.3160813 L213.88292,154 L189.11708,154 L189.11708,91.3160813 C189.11708,77.142329 182.326446,69.1571165 171.141873,69.1571165 C159.9573,69.1571165 153.76584,77.142329 153.76584,90.5175601 L153.76584,90.5175601 L153.76584,154 L129,154 L129,91.116451 C129,62.7689464 144.179063,46 169.344353,46 C184.323691,46 195.30854,51.9889094 201.300275,61.3715342 C207.292011,51.9889094 218.27686,46 233.455923,46 Z" id="Combined-Shape" fill="#FFFFFF"></path>
            <path d="M424,44 C454.776173,44 479,67.409009 479,99.8990991 C479,132.389189 454.776173,156 424,156 C417.037415,156 410.410188,154.791567 404.322936,152.545275 C409.79671,146.269507 414.30491,139.131093 417.619034,131.361314 C419.664088,131.78137 421.797731,132 424,132 C441.058824,132 454,118.881988 454,100 C454,81.1180124 441.058824,68 424,68 C421.797731,68 419.664088,68.2186305 417.618057,68.6400683 C414.301564,60.8610634 409.787607,53.7160823 404.308398,47.434978 C410.397847,45.200337 417.030932,44 424,44 Z" id="Combined-Shape" fill="#FFFFFF"></path>
            <path d="M499,91.116451 L499,154 L523.8,154 L523.8,91.9149723 C523.8,77.142329 530.6,69.1571165 543,69.1571165 C555.2,69.1571165 562.2,77.142329 562.2,91.9149723 L562.2,154 L587,154 L587,91.116451 C587,62.9685767 570.4,46 543,46 C515.4,46 499,62.9685767 499,91.116451 Z" id="Path" fill="#FFFFFF"></path>
            <path d="M344,44 C374.928889,44 400,69.0711111 400,100 C400,130.928889 374.928889,156 344,156 C313.071111,156 288,130.928889 288,100 C288,69.0711111 313.071111,44 344,44 Z M348.57008,136.314845 C350.009217,129.355058 327.554355,130.552065 325.868714,135.793406 C323.119511,144.341262 346.897884,144.399964 348.57008,136.314845 Z M377.855928,113.329641 C377.190987,118.693846 379.185083,120.155895 380.81614,120.52214 C382.447197,120.888384 385.648626,117.066437 386.011575,114.496314 C386.374524,111.926924 385.226135,109.732202 383.775809,108.94038 C382.686254,108.344518 378.52085,107.9654 377.855928,113.329641 Z M317.302373,72.7167908 C320.836455,67.4599395 317.516014,64.2364771 312.91094,69.6269383 C308.305008,75.016522 294.973481,96.9359175 303.531553,110.611465 C308.282507,118.20343 330.312173,116.071726 338.507527,112.47538 C343.9245,110.09668 346.97937,108.395791 344.184237,104.917898 C338.551049,97.9092452 325.872242,88.9996512 343.648827,78.4130785 C346.507666,76.7106544 346.969267,69.8711037 339.043753,69.650892 C331.118238,69.4306583 326.941518,70.7452604 323.192724,74.0312175 C319.444015,77.31735 313.768077,77.9727866 317.302373,72.7167908 Z M382.385775,86.7240882 L382.385842,86.7239059 C381.605156,87.1860088 379.214708,89.6331929 380.468737,91.3939667 C381.721991,93.1554879 384.747064,96.5525238 386.295407,95.7636388 C387.84375,94.9747538 387.327976,90.9703603 386.295407,88.9689838 C385.261975,86.9668781 384.229429,85.6317158 382.385775,86.7240882 Z M362.158107,80.6451848 C359.279143,81.3857664 355.810231,86.1045581 358.273252,89.2240604 C360.736272,92.3435628 361.684478,94.4889651 365.853017,94.6834337 C370.021556,94.8779023 374.285351,87.1770639 369.926868,83.7646872 C365.569143,80.3523105 364.810882,79.9633733 362.158107,80.6451848 Z" id="Moon" fill="url(#linearGradient-1)"></path>
        </g>
    </g>
</svg>