<?xml version="1.0" encoding="UTF-8"?>
<svg width="68px" height="51px" viewBox="0 0 68 51" version="1.1" xmlns="http://www.w3.org/2000/svg" xmlns:xlink="http://www.w3.org/1999/xlink">
    <title>“ copy</title>
    <g id="Website" stroke="none" stroke-width="1" fill="none" fill-rule="evenodd">
        <g id="Promo---Desktop" transform="translate(-1166.000000, -1129.000000)" fill="#FFAE6F" fill-rule="nonzero">
            <g id="“-copy" transform="translate(1200.000000, 1154.500000) scale(-1, -1) translate(-1200.000000, -1154.500000) translate(1166.000000, 1129.000000)">
                <path d="M0,51 C0,49.4416667 0,47.91875 0,46.43125 C0,44.94375 0.0699588477,43.4916667 0.209876543,42.075 C0.769547325,34.7083333 2.37860082,27.4125 5.03703704,20.1875 C7.69547325,12.9625 10.9135802,6.23333333 14.691358,2.01320442e-12 L29.8024691,4.8875 C26.8641975,11.1208333 24.6604938,17.425 23.191358,23.8 C21.7222222,30.175 20.9876543,36.125 20.9876543,41.65 C20.9876543,43.0666667 21.0226337,44.5895833 21.0925926,46.21875 C21.1625514,47.8479167 21.2674897,49.4416667 21.4074074,51 L0,51 Z M38.1975309,51 C38.1975309,49.4416667 38.1975309,47.91875 38.1975309,46.43125 C38.1975309,44.94375 38.2674897,43.4916667 38.4074074,42.075 C38.9670782,34.7083333 40.5761317,27.4125 43.2345679,20.1875 C45.8930041,12.9625 49.1111111,6.23333333 52.8888889,2.01320442e-12 L68,4.8875 C65.0617284,11.1208333 62.8580247,17.425 61.3888889,23.8 C59.9197531,30.175 59.1851852,36.125 59.1851852,41.65 C59.1851852,43.0666667 59.2201646,44.5895833 59.2901235,46.21875 C59.3600823,47.8479167 59.4650206,49.4416667 59.6049383,51 L38.1975309,51 Z" id="Shape"></path>
            </g>
        </g>
    </g>
</svg>